# xmcd
# 
# Track frame offsets:
#     150
#     51031
#     98569
# 
# Disc length: 2456
# 
# Revision: 1
# Processed by: cddbd v1.5.2PL0 Copyright (c) Steve Scherf et al.
# Submitted via: BonkEnc v1.0.15
# 
DISCID=19099603
DTITLE=John Coltrane - Midnite Jazz and Blues Coltrain
DYEAR=2000
DGENRE=Jazz
TTITLE0=Mr. P.C.
TTITLE1=Stuff I´m Partial Too
TTITLE2=My Favourite Things
EXTD=
EXTT0=
EXTT1=
EXTT2=
PLAYORDER=
